<svg xmlns="http://www.w3.org/2000/svg" width="308" height="73" viewBox="0 0 308 73" fill="none"><path d="M0 0H51.0384C59.8471 0 66.988 6.65524 66.988 14.8649V28.9865C75.7966 28.9865 82.9375 35.6418 82.9375 43.8514V57.9731C82.9375 66.1827 75.7966 72.838 66.988 72.838H37.4814L29.9054 57.9731H60.6082V43.8514H22.7281L15.1521 28.9865H45.8549V14.8649H7.57602L0 0Z" fill="url(#paint0_linear_261_2277)"></path><path d="M139.853 57.493C139.853 51.5756 135.933 46.25 129.868 44.9925C134.898 43.5132 138.67 39.445 138.67 33.1578C138.67 24.9474 132.383 19.6957 121.805 19.6957H98.4316V71.6208H122.619C133.566 71.6208 139.853 66.0732 139.853 57.493ZM125.8 35.3028C125.8 38.8532 123.507 40.7024 119.364 40.7024H111.08V29.8292H119.364C123.507 29.8292 125.8 31.7524 125.8 35.3028ZM127.057 55.7918C127.057 59.4901 124.616 61.4133 120.4 61.4133H111.08V49.9483H120.252C124.468 49.9483 127.057 52.0934 127.057 55.7918Z" fill="white"></path><path d="M171.746 72.1385C186.466 72.1385 198.301 61.1174 198.301 45.5103C198.301 29.9032 186.54 18.9561 171.746 18.9561C157.027 18.9561 145.044 29.9032 145.044 45.5103C145.044 61.1174 157.027 72.1385 171.746 72.1385ZM171.746 60.5996C163.314 60.5996 157.989 54.6083 157.989 45.5103C157.989 36.2644 163.314 30.421 171.746 30.421C180.031 30.421 185.43 36.2644 185.43 45.5103C185.43 54.6083 180.031 60.5996 171.746 60.5996Z" fill="white"></path><path d="M237.143 71.6208H251.863L234.702 45.8801L251.197 19.6957H236.848L227.676 35.3768L217.246 19.6957H202.527L219.539 45.2144L202.897 71.6208H217.246L226.566 55.7178L237.143 71.6208Z" fill="white"></path><path d="M273.598 19.6957L254.81 71.6208H268.05L271.157 62.4488H290.536L293.643 71.6208H307.031L288.243 19.6957H273.598ZM274.485 52.6851L280.846 33.6755L287.282 52.6851H274.485Z" fill="white"></path><defs><linearGradient id="paint0_linear_261_2277" x1="81.1431" y1="72.838" x2="4.46094" y2="-7.44721" gradientUnits="userSpaceOnUse"><stop stop-color="#C4F0DE"></stop><stop offset="0.322917" stop-color="#12976D"></stop><stop offset="0.755208" stop-color="#3AC7A3"></stop><stop offset="1" stop-color="#50E3C2"></stop></linearGradient></defs></svg>